<svg width="132.64999999999998px" height="169.4px" xmlns="http://www.w3.org/2000/svg" viewBox="183.675 -9.700000000000003 132.64999999999998 169.4" style="background: none;" preserveAspectRatio="xMidYMid"><defs><filter id="editing-vr"><feFlood flood-color="#d8ebf9" flood-opacity="0.7" result="c1"></feFlood><feFlood flood-color="#71c2cc" flood-opacity="0.7" result="c3"></feFlood><feComposite operator="in" in="c1" in2="SourceAlpha" result="text-c1"></feComposite><feComposite operator="in" in="c3" in2="SourceAlpha" result="text-c3"></feComposite><feOffset in="text-c1" dx="5" dy="-4" result="text1"></feOffset><feOffset in="text-c3" dx="-5" dy="4" result="text3"></feOffset><feBlend in="SourceGraphic" in2="text1" mode="multiply" result="text4"></feBlend><feBlend in="text4" in2="text3" mode="multiply"></feBlend></filter></defs><g filter="url(#editing-vr)"><g transform="translate(208.58500480651855, 115.70000267028809)"><path d="M22.11-68.42L22.11-68.42L62.59-22.88L62.59-69.30L63.69-69.30L63.69-9.90L62.59-9.90L62.59-21.23L21.01-67.87L21.01-67.87Q20.90-67.98 20.73-68.09L20.73-68.09L20.73-68.09Q20.57-68.20 20.46-68.20L20.46-68.20L20.46-68.20Q20.35-68.20 20.30-68.09L20.30-68.09L20.30-68.09Q20.24-67.98 20.24-67.87L20.24-67.87L20.24-9.90L19.14-9.90L19.14-68.09L19.14-68.09Q19.14-68.75 19.58-69.08L19.58-69.08L19.58-69.08Q20.02-69.41 20.46-69.41L20.46-69.41L20.46-69.41Q20.90-69.41 21.23-69.19L21.23-69.19L21.23-69.19Q21.56-68.97 22.11-68.42ZM11.55 0L28.05 0L28.05 0Q30.14 0 31.07-0.94L31.07-0.94L31.07-0.94Q32.01-1.87 32.01-3.96L32.01-3.96L32.01-40.26L50.82-17.49L50.82-3.96L50.82-3.96Q50.82-1.87 51.76-0.94L51.76-0.94L51.76-0.94Q52.69 0 54.78 0L54.78 0L71.28 0L71.28 0Q73.37 0 74.31-0.94L74.31-0.94L74.31-0.94Q75.24-1.87 75.24-3.96L75.24-3.96L75.24-75.24L75.24-75.24Q75.24-77.33 74.31-78.27L74.31-78.27L74.31-78.27Q73.37-79.20 71.28-79.20L71.28-79.20L54.78-79.20L54.78-79.20Q52.69-79.20 51.76-78.27L51.76-78.27L51.76-78.27Q50.82-77.33 50.82-75.24L50.82-75.24L50.82-51.81L29.48-76.23L29.48-76.23Q28.05-77.88 26.57-78.54L26.57-78.54L26.57-78.54Q25.08-79.20 22.99-79.20L22.99-79.20L11.55-79.20L11.55-79.20Q9.46-79.20 8.53-78.27L8.53-78.27L8.53-78.27Q7.59-77.33 7.59-75.24L7.59-75.24L7.59-3.96L7.59-3.96Q7.59-1.87 8.53-0.94L8.53-0.94L8.53-0.94Q9.46 0 11.55 0L11.55 0ZM28.05 1.10L28.05 1.10L11.55 1.10L11.55 1.10Q8.91 1.10 7.70-0.11L7.70-0.11L7.70-0.11Q6.49-1.32 6.49-3.96L6.49-3.96L6.49-75.24L6.49-75.24Q6.49-77.88 7.70-79.09L7.70-79.09L7.70-79.09Q8.91-80.30 11.55-80.30L11.55-80.30L22.99-80.30L22.99-80.30Q25.41-80.30 27.06-79.53L27.06-79.53L27.06-79.53Q28.71-78.76 30.36-77L30.36-77L49.72-54.89L49.72-75.24L49.72-75.24Q49.72-77.88 50.93-79.09L50.93-79.09L50.93-79.09Q52.14-80.30 54.78-80.30L54.78-80.30L71.28-80.30L71.28-80.30Q73.92-80.30 75.13-79.09L75.13-79.09L75.13-79.09Q76.34-77.88 76.34-75.24L76.34-75.24L76.34-3.96L76.34-3.96Q76.34-1.32 75.13-0.11L75.13-0.11L75.13-0.11Q73.92 1.10 71.28 1.10L71.28 1.10L54.78 1.10L54.78 1.10Q52.14 1.10 50.93-0.11L50.93-0.11L50.93-0.11Q49.72-1.32 49.72-3.96L49.72-3.96L49.72-17.05L33.11-37.18L33.11-3.96L33.11-3.96Q33.11-1.32 31.90-0.11L31.90-0.11L31.90-0.11Q30.69 1.10 28.05 1.10Z" fill="#5699d2"></path></g></g><style>text {
  font-size: 64px;
  font-family: Arial Black;
  dominant-baseline: central;
  text-anchor: middle;
}</style></svg>