<svg width="142.990625px" height="107px" xmlns="http://www.w3.org/2000/svg" viewBox="178.5046875 21.5 142.990625 107" style="background: none;" preserveAspectRatio="xMidYMid"><defs><filter id="editing-neon" x="-100%" y="-100%" width="300%" height="300%"><feFlood flood-color="#0d6988" result="flood"></feFlood><feComposite operator="in" in="flood" in2="SourceAlpha" result="color"></feComposite><feFlood flood-color="#0d6988" result="flood2"></feFlood><feComposite operator="in" in="flood2" in2="SourceAlpha" result="color2"></feComposite><feMorphology operator="dilate" radius="2" in="color" result="dilate"></feMorphology><feGaussianBlur stdDeviation="6" in="color" result="blur1"></feGaussianBlur><feGaussianBlur stdDeviation="2.5" in="color" result="blur2"></feGaussianBlur><feGaussianBlur stdDeviation="1" in="SourceAlpha" result="blur3"></feGaussianBlur><feGaussianBlur stdDeviation="6" in="dilate" result="blur4"></feGaussianBlur><feConvolveMatrix in="color2" result="conv" order="3,3" divisor="1" kernelMatrix="1 1 1  1 1 1  1 1 1"></feConvolveMatrix><feMerge><feMergeNode in="blur1"></feMergeNode><feMergeNode in="blur2"></feMergeNode><feMergeNode in="blur4"></feMergeNode><feMergeNode in="blur3"></feMergeNode><feMergeNode in="blur3"></feMergeNode><feMergeNode in="blur3"></feMergeNode><feMergeNode in="blur3"></feMergeNode><feMergeNode in="conv"></feMergeNode><feMergeNode in="SourceGraphic"></feMergeNode></feMerge></filter></defs><g filter="url(#editing-neon)"><g transform="translate(204.0450084209442, 98.68000030517578)"><path d="M12.86-39.81L12.86-39.81L36.42-13.31L36.42-40.32L37.06-40.32L37.06-5.76L36.42-5.76L36.42-12.35L12.22-39.49L12.22-39.49Q12.16-39.55 12.06-39.62L12.06-39.62L12.06-39.62Q11.97-39.68 11.90-39.68L11.90-39.68L11.90-39.68Q11.84-39.68 11.81-39.62L11.81-39.62L11.81-39.62Q11.78-39.55 11.78-39.49L11.78-39.49L11.78-5.76L11.14-5.76L11.14-39.62L11.14-39.62Q11.14-40 11.39-40.19L11.39-40.19L11.39-40.19Q11.65-40.38 11.90-40.38L11.90-40.38L11.90-40.38Q12.16-40.38 12.35-40.26L12.35-40.26L12.35-40.26Q12.54-40.13 12.86-39.81ZM6.72 0L16.32 0L16.32 0Q17.54 0 18.08-0.54L18.08-0.54L18.08-0.54Q18.62-1.09 18.62-2.30L18.62-2.30L18.62-23.42L29.57-10.18L29.57-2.30L29.57-2.30Q29.57-1.09 30.11-0.54L30.11-0.54L30.11-0.54Q30.66 0 31.87 0L31.87 0L41.47 0L41.47 0Q42.69 0 43.23-0.54L43.23-0.54L43.23-0.54Q43.78-1.09 43.78-2.30L43.78-2.30L43.78-43.78L43.78-43.78Q43.78-44.99 43.23-45.54L43.23-45.54L43.23-45.54Q42.69-46.08 41.47-46.08L41.47-46.08L31.87-46.08L31.87-46.08Q30.66-46.08 30.11-45.54L30.11-45.54L30.11-45.54Q29.57-44.99 29.57-43.78L29.57-43.78L29.57-30.14L17.15-44.35L17.15-44.35Q16.32-45.31 15.46-45.70L15.46-45.70L15.46-45.70Q14.59-46.08 13.38-46.08L13.38-46.08L6.72-46.08L6.72-46.08Q5.50-46.08 4.96-45.54L4.96-45.54L4.96-45.54Q4.42-44.99 4.42-43.78L4.42-43.78L4.42-2.30L4.42-2.30Q4.42-1.09 4.96-0.54L4.96-0.54L4.96-0.54Q5.50 0 6.72 0L6.72 0ZM16.32 0.64L16.32 0.64L6.72 0.64L6.72 0.64Q5.18 0.64 4.48-0.06L4.48-0.06L4.48-0.06Q3.78-0.77 3.78-2.30L3.78-2.30L3.78-43.78L3.78-43.78Q3.78-45.31 4.48-46.02L4.48-46.02L4.48-46.02Q5.18-46.72 6.72-46.72L6.72-46.72L13.38-46.72L13.38-46.72Q14.78-46.72 15.74-46.27L15.74-46.27L15.74-46.27Q16.70-45.82 17.66-44.80L17.66-44.80L28.93-31.94L28.93-43.78L28.93-43.78Q28.93-45.31 29.63-46.02L29.63-46.02L29.63-46.02Q30.34-46.72 31.87-46.72L31.87-46.72L41.47-46.72L41.47-46.72Q43.01-46.72 43.71-46.02L43.71-46.02L43.71-46.02Q44.42-45.31 44.42-43.78L44.42-43.78L44.42-2.30L44.42-2.30Q44.42-0.77 43.71-0.06L43.71-0.06L43.71-0.06Q43.01 0.64 41.47 0.64L41.47 0.64L31.87 0.64L31.87 0.64Q30.34 0.64 29.63-0.06L29.63-0.06L29.63-0.06Q28.93-0.77 28.93-2.30L28.93-2.30L28.93-9.92L19.26-21.63L19.26-2.30L19.26-2.30Q19.26-0.77 18.56-0.06L18.56-0.06L18.56-0.06Q17.86 0.64 16.32 0.64ZM85.18 0.64L53.44 0.64L53.44 0.64Q51.90 0.64 51.20-0.06L51.20-0.06L51.20-0.06Q50.50-0.77 50.50-2.30L50.50-2.30L50.50-10.88L50.50-10.88Q50.50-12.29 50.91-13.28L50.91-13.28L50.91-13.28Q51.33-14.27 52.22-15.23L52.22-15.23L66.94-33.09L54.59-33.09L54.59-33.09Q53.06-33.09 52.35-33.79L52.35-33.79L52.35-33.79Q51.65-34.50 51.65-36.03L51.65-36.03L51.65-43.78L51.65-43.78Q51.65-45.31 52.35-46.02L52.35-46.02L52.35-46.02Q53.06-46.72 54.59-46.72L54.59-46.72L84.03-46.72L84.03-46.72Q85.57-46.72 86.27-46.02L86.27-46.02L86.27-46.02Q86.98-45.31 86.98-43.78L86.98-43.78L86.98-34.24L86.98-34.24Q86.98-32.83 86.56-31.81L86.56-31.81L86.56-31.81Q86.14-30.78 85.25-29.82L85.25-29.82L71.23-12.86L85.18-12.86L85.18-12.86Q86.72-12.86 87.42-12.16L87.42-12.16L87.42-12.16Q88.13-11.46 88.13-9.92L88.13-9.92L88.13-2.30L88.13-2.30Q88.13-0.77 87.42-0.06L87.42-0.06L87.42-0.06Q86.72 0.64 85.18 0.64L85.18 0.64ZM53.44 0L85.18 0L85.18 0Q86.40 0 86.94-0.54L86.94-0.54L86.94-0.54Q87.49-1.09 87.49-2.30L87.49-2.30L87.49-9.92L87.49-9.92Q87.49-11.14 86.94-11.68L86.94-11.68L86.94-11.68Q86.40-12.22 85.18-12.22L85.18-12.22L69.89-12.22L84.74-30.21L84.74-30.21Q85.57-31.10 85.95-32.03L85.95-32.03L85.95-32.03Q86.34-32.96 86.34-34.24L86.34-34.24L86.34-43.78L86.34-43.78Q86.34-44.99 85.79-45.54L85.79-45.54L85.79-45.54Q85.25-46.08 84.03-46.08L84.03-46.08L54.59-46.08L54.59-46.08Q53.38-46.08 52.83-45.54L52.83-45.54L52.83-45.54Q52.29-44.99 52.29-43.78L52.29-43.78L52.29-36.03L52.29-36.03Q52.29-34.82 52.83-34.27L52.83-34.27L52.83-34.27Q53.38-33.73 54.59-33.73L54.59-33.73L68.29-33.73L52.74-14.85L52.74-14.85Q51.90-13.95 51.52-13.02L51.52-13.02L51.52-13.02Q51.14-12.10 51.14-10.88L51.14-10.88L51.14-2.30L51.14-2.30Q51.14-1.09 51.68-0.54L51.68-0.54L51.68-0.54Q52.22 0 53.44 0L53.44 0ZM78.46-34.82L78.46-34.82L59.71-10.75L59.71-10.75Q59.26-10.18 59.04-9.79L59.04-9.79L59.04-9.79Q58.82-9.41 58.82-8.77L58.82-8.77L58.82-7.87L58.82-7.87Q58.82-6.98 59.23-6.69L59.23-6.69L59.23-6.69Q59.65-6.40 60.16-6.40L60.16-6.40L81.73-6.40L81.73-5.76L60.16-5.76L60.16-5.76Q59.14-5.76 58.66-6.27L58.66-6.27L58.66-6.27Q58.18-6.78 58.18-7.87L58.18-7.87L58.18-8.90L58.18-8.90Q58.18-9.60 58.50-10.14L58.50-10.14L58.50-10.14Q58.82-10.69 59.26-11.26L59.26-11.26L78.02-35.33L78.02-35.33Q78.46-35.90 78.69-36.29L78.69-36.29L78.69-36.29Q78.91-36.67 78.91-37.31L78.91-37.31L78.91-38.21L78.91-38.21Q78.91-39.10 78.50-39.39L78.50-39.39L78.50-39.39Q78.08-39.68 77.57-39.68L77.57-39.68L58.05-39.68L58.05-40.32L77.57-40.32L77.57-40.32Q78.59-40.32 79.07-39.81L79.07-39.81L79.07-39.81Q79.55-39.30 79.55-38.21L79.55-38.21L79.55-37.18L79.55-37.18Q79.55-36.48 79.23-35.94L79.23-35.94L79.23-35.94Q78.91-35.39 78.46-34.82Z" fill="none" stroke="#b3fbff" stroke-width="0.5"></path></g></g><style>text {
  font-size: 64px;
  font-family: Arial Black;
  dominant-baseline: central;
  text-anchor: middle;
}</style></svg>