<svg width="118.7375px" height="169.4px" xmlns="http://www.w3.org/2000/svg" viewBox="190.63125 -9.700000000000003 118.7375 169.4" style="background: none;" preserveAspectRatio="xMidYMid"><defs><filter id="editing-vr"><feFlood flood-color="#d8ebf9" flood-opacity="0.7" result="c1"></feFlood><feFlood flood-color="#71c2cc" flood-opacity="0.7" result="c3"></feFlood><feComposite operator="in" in="c1" in2="SourceAlpha" result="text-c1"></feComposite><feComposite operator="in" in="c3" in2="SourceAlpha" result="text-c3"></feComposite><feOffset in="text-c1" dx="5" dy="-4" result="text1"></feOffset><feOffset in="text-c3" dx="-5" dy="4" result="text3"></feOffset><feBlend in="SourceGraphic" in2="text1" mode="multiply" result="text4"></feBlend><feBlend in="text4" in2="text3" mode="multiply"></feBlend></filter></defs><g filter="url(#editing-vr)"><g transform="translate(213.7000150680542, 115.70000267028809)"><path d="M63.58 1.10L9.02 1.10L9.02 1.10Q6.38 1.10 5.17-0.11L5.17-0.11L5.17-0.11Q3.96-1.32 3.96-3.96L3.96-3.96L3.96-18.70L3.96-18.70Q3.96-21.12 4.67-22.82L4.67-22.82L4.67-22.82Q5.39-24.53 6.93-26.18L6.93-26.18L32.23-56.87L11-56.87L11-56.87Q8.36-56.87 7.15-58.08L7.15-58.08L7.15-58.08Q5.94-59.29 5.94-61.93L5.94-61.93L5.94-75.24L5.94-75.24Q5.94-77.88 7.15-79.09L7.15-79.09L7.15-79.09Q8.36-80.30 11-80.30L11-80.30L61.60-80.30L61.60-80.30Q64.24-80.30 65.45-79.09L65.45-79.09L65.45-79.09Q66.66-77.88 66.66-75.24L66.66-75.24L66.66-58.85L66.66-58.85Q66.66-56.43 65.95-54.67L65.95-54.67L65.95-54.67Q65.23-52.91 63.69-51.26L63.69-51.26L39.60-22.11L63.58-22.11L63.58-22.11Q66.22-22.11 67.43-20.90L67.43-20.90L67.43-20.90Q68.64-19.69 68.64-17.05L68.64-17.05L68.64-3.96L68.64-3.96Q68.64-1.32 67.43-0.11L67.43-0.11L67.43-0.11Q66.22 1.10 63.58 1.10L63.58 1.10ZM9.02 0L63.58 0L63.58 0Q65.67 0 66.61-0.94L66.61-0.94L66.61-0.94Q67.54-1.87 67.54-3.96L67.54-3.96L67.54-17.05L67.54-17.05Q67.54-19.14 66.61-20.07L66.61-20.07L66.61-20.07Q65.67-21.01 63.58-21.01L63.58-21.01L37.29-21.01L62.81-51.92L62.81-51.92Q64.24-53.46 64.90-55.05L64.90-55.05L64.90-55.05Q65.56-56.65 65.56-58.85L65.56-58.85L65.56-75.24L65.56-75.24Q65.56-77.33 64.63-78.27L64.63-78.27L64.63-78.27Q63.69-79.20 61.60-79.20L61.60-79.20L11-79.20L11-79.20Q8.91-79.20 7.97-78.27L7.97-78.27L7.97-78.27Q7.04-77.33 7.04-75.24L7.04-75.24L7.04-61.93L7.04-61.93Q7.04-59.84 7.97-58.91L7.97-58.91L7.97-58.91Q8.91-57.97 11-57.97L11-57.97L34.54-57.97L7.81-25.52L7.81-25.52Q6.38-23.98 5.72-22.39L5.72-22.39L5.72-22.39Q5.06-20.79 5.06-18.70L5.06-18.70L5.06-3.96L5.06-3.96Q5.06-1.87 6.00-0.94L6.00-0.94L6.00-0.94Q6.93 0 9.02 0L9.02 0ZM52.03-59.84L52.03-59.84L19.80-18.48L19.80-18.48Q19.03-17.49 18.64-16.83L18.64-16.83L18.64-16.83Q18.26-16.17 18.26-15.07L18.26-15.07L18.26-13.53L18.26-13.53Q18.26-11.99 18.98-11.49L18.98-11.49L18.98-11.49Q19.69-11 20.57-11L20.57-11L57.64-11L57.64-9.90L20.57-9.90L20.57-9.90Q18.81-9.90 17.98-10.78L17.98-10.78L17.98-10.78Q17.16-11.66 17.16-13.53L17.16-13.53L17.16-15.29L17.16-15.29Q17.16-16.50 17.71-17.43L17.71-17.43L17.71-17.43Q18.26-18.37 19.03-19.36L19.03-19.36L51.26-60.72L51.26-60.72Q52.03-61.71 52.41-62.37L52.41-62.37L52.41-62.37Q52.80-63.03 52.80-64.13L52.80-64.13L52.80-65.67L52.80-65.67Q52.80-67.21 52.09-67.70L52.09-67.70L52.09-67.70Q51.37-68.20 50.49-68.20L50.49-68.20L16.94-68.20L16.94-69.30L50.49-69.30L50.49-69.30Q52.25-69.30 53.08-68.42L53.08-68.42L53.08-68.42Q53.90-67.54 53.90-65.67L53.90-65.67L53.90-63.91L53.90-63.91Q53.90-62.70 53.35-61.77L53.35-61.77L53.35-61.77Q52.80-60.83 52.03-59.84Z" fill="#5699d2"></path></g></g><style>text {
  font-size: 64px;
  font-family: Arial Black;
  dominant-baseline: central;
  text-anchor: middle;
}</style></svg>